<svg width="94" height="60" viewBox="0 0 94 60" fill="none" xmlns="http://www.w3.org/2000/svg">
<path d="M93.4451 49.4498C93.4451 51.1076 90.4308 52.4641 87.4164 52.4641C84.402 52.4641 81.3877 51.1076 81.3877 49.4498V34.5287C81.3877 32.8708 84.402 31.5143 87.4164 31.5143C90.4308 31.5143 93.4451 32.8708 93.4451 34.5287V49.4498Z" fill="#1B6B84"/>
<path d="M91.9375 42.2153H87.416V43.7224H91.9375V42.2153Z" fill="white"/>
<path d="M91.9375 39.2009H87.416V40.7081H91.9375V39.2009Z" fill="white"/>
<path d="M91.9375 36.1866H87.416V37.6938H91.9375V36.1866Z" fill="white"/>
<path d="M91.9375 45.2296H87.416V46.7368H91.9375V45.2296Z" fill="white"/>
<path d="M91.9375 48.244H87.416V49.7511H91.9375V48.244Z" fill="white"/>
<path d="M81.0859 27.1435L79.428 15.0861H61.7941V6.04303H3.01416V49.7512H61.1912H61.4926H70.5357H84.251H88.9232V27.1435H81.0859Z" fill="#5FDCC6"/>
<path d="M84.4017 49.7512H88.9232V27.1435H81.0859L79.428 15.0861H61.7941V6.04303H3.01416" fill="#40C4AC"/>
<path d="M93.445 49.7512H0V54.2728H93.445V49.7512Z" fill="#1B6B84"/>
<path d="M21.2512 60C26.1623 60 30.1436 56.0188 30.1436 51.1077C30.1436 46.1966 26.1623 42.2153 21.2512 42.2153C16.3401 42.2153 12.3589 46.1966 12.3589 51.1077C12.3589 56.0188 16.3401 60 21.2512 60Z" fill="white"/>
<path d="M21.2512 55.4784C23.6651 55.4784 25.622 53.5216 25.622 51.1076C25.622 48.6937 23.6651 46.7368 21.2512 46.7368C18.8373 46.7368 16.8804 48.6937 16.8804 51.1076C16.8804 53.5216 18.8373 55.4784 21.2512 55.4784Z" fill="black"/>
<path d="M80.1817 51.1077C80.1817 56.0814 76.263 60 71.2893 60C66.3156 60 62.397 56.0814 62.397 51.1077C62.397 46.134 66.3156 42.2153 71.1386 42.2153C76.1123 42.2153 80.1817 46.2847 80.1817 51.1077Z" fill="white"/>
<path d="M71.1389 55.4784C73.5528 55.4784 75.5097 53.5216 75.5097 51.1076C75.5097 48.6937 73.5528 46.7368 71.1389 46.7368C68.7249 46.7368 66.7681 48.6937 66.7681 51.1076C66.7681 53.5216 68.7249 55.4784 71.1389 55.4784Z" fill="black"/>
<path d="M42.3892 19.6076H36.3605V13.5789H28.8246V19.6076H22.7959V27.1435H28.8246V33.1722H36.3605V27.1435H42.3892V19.6076Z" fill="#D80027"/>
<path d="M70.8374 27.1435H81.0862L79.8805 18.1005H70.8374V27.1435Z" fill="black"/>
<path d="M67.8231 18.1005H60.8901V27.1435H67.8231V18.1005Z" fill="black"/>
<path d="M70.8374 27.1435H81.0862L79.8805 18.1005" fill="#455A64"/>
<path d="M60.8901 27.1435H67.8231V18.1005" fill="#455A64"/>
<path d="M88.9232 37.6938H3.01416V40.7081H88.9232V37.6938Z" fill="#C4C4C4"/>
<path d="M88.9232 34.6794H3.01416V39.201H88.9232V34.6794Z" fill="#1B6B84"/>
<path d="M30.1436 0H22.7584C18.8397 0 15.5239 3.01435 14.6196 6.02871H30.1436V0Z" fill="#A8A8A8"/>
<path d="M34.665 6.02871H49.7368C48.6818 3.01435 45.5167 0 41.5981 0H34.665V6.02871Z" fill="#7A0016"/>
<path d="M47.9282 3.01435C46.5717 1.50718 44.311 0 41.5981 0H34.665V3.01435H47.9282Z" fill="#D80027"/>
<path d="M30.1435 3.01435V0H22.7584C20.0454 0 17.4832 1.50718 16.4282 3.01435H30.1435Z" fill="white"/>
<path d="M88.9236 28.8014H88.4714C85.9092 28.8014 83.6484 30.9114 83.6484 33.4736C83.6484 36.0358 85.9092 38.1459 88.4714 38.1459C88.6221 38.1459 88.9236 38.1459 88.9236 38.1459V28.8014Z" fill="white"/>
</svg>
