<svg width="364" height="339" viewBox="0 0 364 339" fill="none" xmlns="http://www.w3.org/2000/svg">
<path d="M325.17 174.68L332.17 170.61C332.404 170.438 332.68 170.332 332.968 170.304C333.257 170.276 333.548 170.326 333.81 170.45C334.22 170.69 335.05 171.2 335.46 171.45C335.698 171.616 335.888 171.842 336.009 172.106C336.13 172.37 336.179 172.661 336.15 172.95V189.76C336.109 190.561 335.879 191.34 335.479 192.036C335.08 192.731 334.522 193.322 333.85 193.76L326.85 197.83C326.617 197.999 326.343 198.103 326.057 198.131C325.77 198.159 325.482 198.111 325.22 197.99C324.8 197.75 323.97 197.24 323.55 196.99C323.313 196.824 323.125 196.597 323.005 196.333C322.886 196.069 322.839 195.778 322.87 195.49V178.66C322.913 177.862 323.144 177.086 323.543 176.394C323.943 175.703 324.5 175.115 325.17 174.68Z" fill="#FAFAFA"/>
<path d="M322.86 178.66V195.48C322.829 195.768 322.876 196.059 322.995 196.323C323.115 196.587 323.303 196.814 323.54 196.98C323.95 197.21 324.54 197.6 325.16 197.93C324.943 197.758 324.772 197.535 324.663 197.279C324.555 197.024 324.513 196.746 324.54 196.47V179.65C324.565 178.852 324.796 178.073 325.21 177.39L323.54 176.39C323.12 177.075 322.886 177.857 322.86 178.66Z" fill="#E0E0E0"/>
<path d="M333.84 193.73L326.84 197.8C325.56 198.54 324.53 197.94 324.53 196.47V179.65C324.571 178.848 324.802 178.067 325.203 177.372C325.605 176.676 326.166 176.086 326.84 175.65L333.84 171.58C335.11 170.84 336.15 171.44 336.15 172.91V189.72C336.109 190.523 335.879 191.306 335.477 192.003C335.076 192.7 334.515 193.292 333.84 193.73Z" fill="#F5F5F5"/>
<path d="M324.76 207.7C324.633 207.699 324.51 207.657 324.41 207.579C324.309 207.501 324.237 207.393 324.204 207.27C324.171 207.148 324.179 207.018 324.227 206.9C324.275 206.783 324.361 206.684 324.47 206.62L329.35 203.8C329.438 203.749 329.511 203.676 329.562 203.589C329.613 203.501 329.64 203.401 329.64 203.3V184.87C329.64 184.716 329.701 184.569 329.81 184.46C329.919 184.351 330.066 184.29 330.22 184.29C330.374 184.29 330.522 184.351 330.63 184.46C330.739 184.569 330.8 184.716 330.8 184.87V203.3C330.801 203.606 330.721 203.907 330.568 204.172C330.415 204.437 330.195 204.657 329.93 204.81L325.05 207.62C324.964 207.675 324.863 207.703 324.76 207.7Z" fill="#263238"/>
<path d="M199.18 298.54L219 289.4C219 289.4 217.45 270.79 204.39 275.23C191.33 279.67 199.18 298.54 199.18 298.54Z" fill="#37474F"/>
<path d="M210.06 296.21L205.8 287.76L215.94 281.89C219.16 280.04 223.45 280.25 228.16 282.97C238.16 288.75 246.28 303.65 246.28 316.26C246.28 322.86 244.06 327.51 240.5 329.63L240.36 329.71L229.97 335.71L225.48 326.79C217 320.29 210.39 307.46 210.06 296.21Z" fill="#263238"/>
<path d="M217.62 296.66C211.25 292.99 206.09 296.82 206.09 305.22C206.09 313.62 211.25 323.42 217.62 327.1C223.99 330.78 229.15 326.94 229.15 318.54C229.15 310.14 224 300.34 217.62 296.66Z" fill="#455A64"/>
<path d="M217.62 304C214.31 302.09 211.62 304.08 211.62 308.44C211.62 312.8 214.3 317.89 217.62 319.8C220.94 321.71 223.62 319.72 223.62 315.36C223.62 311 220.92 305.89 217.62 304Z" fill="#E0E0E0"/>
<path d="M215.71 303.91C215.3 303.663 214.855 303.481 214.39 303.37C212.74 303.82 211.63 305.63 211.63 308.42C211.744 311.705 212.923 314.864 214.99 317.42C215.221 317.597 215.461 317.76 215.71 317.91C218.65 319.6 221.03 317.84 221.03 313.96C221.03 310.08 218.65 305.6 215.71 303.91Z" fill="#F5F5F5"/>
<path d="M199.5 301.42C199.5 312.28 205.5 324.86 213.61 331.82C208.004 325.468 204.057 317.828 202.12 309.58C200.59 302.32 201.12 291.89 207.4 289.25C213.68 286.61 221.87 292.17 224.47 294.7C222.487 292.483 220.177 290.581 217.62 289.06C207.61 283.28 199.5 288.81 199.5 301.42Z" fill="#455A64"/>
<path d="M358.72 257.54V279.54C335 308 301.86 325.23 262.53 335.11L242.68 323.65V321.88C242.68 312.11 237.86 300.88 230.78 292.65C230.34 292.11 229.86 291.58 229.4 291.08C229.05 290.74 228.73 290.4 228.4 290.08C226.97 288.625 225.425 287.287 223.78 286.08C222.852 285.416 221.89 284.798 220.9 284.23C220.3 283.87 219.72 283.56 219.11 283.23C218.5 282.9 217.95 282.69 217.36 282.47C216.77 282.25 216.36 282.09 215.82 281.95C214.311 281.465 212.736 281.212 211.15 281.2C209.476 281.169 207.816 281.511 206.29 282.2C205.198 282.723 204.203 283.43 203.35 284.29C200.74 286.92 199.19 291.14 199.19 296.65V298.46L181.64 288.33L150.72 270.48V134.73L246.89 79.2299L256.99 85.05C257.99 85.61 258.93 86.2 259.88 86.8C260.68 87.3 261.47 87.8 262.25 88.34L262.88 88.77L264.06 89.6L265.42 90.6C266.77 91.6 268.08 92.6 269.37 93.7C270.23 94.41 271.07 95.14 271.9 95.89L273.1 97C273.92 97.76 274.71 98.54 275.5 99.33C276.29 100.12 277.05 100.93 277.8 101.75C278.55 102.57 279.12 103.2 279.75 103.95L280.41 104.72C280.98 105.4 281.54 106.08 282.09 106.77L282.97 107.91C283.43 108.51 283.9 109.12 284.35 109.74C284.8 110.36 285.09 110.74 285.45 111.28C285.81 111.82 286.17 112.28 286.52 112.85L287.3 114.04C288.07 115.23 288.81 116.45 289.51 117.68C289.98 118.5 290.44 119.32 290.89 120.16L351.62 234.16L353 236.7L354 238.5C354 238.6 354.11 238.7 354.16 238.81C357.173 244.592 358.738 251.02 358.72 257.54Z" fill="#F0F0F0"/>
<path d="M335.52 283.61C323.689 291.753 311.234 298.948 298.27 305.13C297.855 305.338 297.401 305.454 296.937 305.472C296.473 305.49 296.011 305.409 295.581 305.234C295.151 305.058 294.764 304.794 294.445 304.457C294.125 304.12 293.882 303.719 293.73 303.28C292.624 300.289 291.751 297.216 291.12 294.09C291.013 293.047 291.219 291.996 291.71 291.071C292.201 290.145 292.957 289.386 293.88 288.89C308.843 281.351 323.366 272.971 337.38 263.79C339.05 262.69 340.49 263.41 340.46 265.4C340.354 269.627 339.919 273.84 339.16 278C338.633 280.235 337.346 282.218 335.52 283.61Z" fill="#263238"/>
<path d="M273.92 97.82L177.92 153.48C172.739 148.495 166.978 144.15 160.76 140.54L150.69 134.73L246.85 79.2299L256.95 85.05C263.104 88.6017 268.803 92.89 273.92 97.82Z" fill="#FAFAFA"/>
<path d="M262.53 313.08V335.08L262.35 334.98L260.98 334.18L242.68 323.62V321.85C242.68 312.08 237.86 300.85 230.78 292.62C230.34 292.08 229.86 291.55 229.4 291.05C229.05 290.71 228.73 290.37 228.4 290.05C226.97 288.595 225.425 287.257 223.78 286.05C222.852 285.386 221.89 284.768 220.9 284.2C220.3 283.84 219.72 283.53 219.11 283.2C218.5 282.87 217.95 282.66 217.36 282.44C216.77 282.22 216.36 282.06 215.82 281.92C214.311 281.435 212.736 281.182 211.15 281.17C209.476 281.139 207.816 281.481 206.29 282.17C205.198 282.693 204.203 283.4 203.35 284.26C200.74 286.89 199.19 291.11 199.19 296.62V298.43L181.64 288.3L150.72 270.45V134.73L160.8 140.54C175.153 148.868 186.902 161.029 194.73 175.66L255.46 289.66L257.79 294C260.919 299.872 262.547 306.426 262.53 313.08Z" fill="#E0E0E0"/>
<path d="M246.81 254L254.11 258.22C255.491 259.019 257.103 259.322 258.68 259.08C278.16 256.08 317.75 235.08 329.52 217.68C330.241 216.582 330.614 215.293 330.59 213.98V205.39C330.588 204.242 330.303 203.112 329.76 202.1L302 150.32C301.774 149.899 301.465 149.528 301.093 149.228C300.72 148.929 300.291 148.707 299.832 148.577C299.372 148.446 298.89 148.409 298.416 148.468C297.942 148.527 297.484 148.681 297.07 148.92L217.87 194.64C217.07 195.104 216.48 195.86 216.227 196.75C215.973 197.64 216.075 198.594 216.51 199.41L244.12 251.24C244.737 252.397 245.67 253.354 246.81 254Z" fill="#37474F"/>
<g opacity="0.1">
<path d="M297.16 152.63L295.63 149.76L265.93 166.91C269.865 179.389 278.331 189.942 289.66 196.49L297.16 200.83V152.63Z" fill="white"/>
<path d="M300.68 159.23V202.86L322 215.14C322.763 215.578 323.648 215.756 324.522 215.648C325.395 215.54 326.21 215.15 326.843 214.539C327.476 213.927 327.893 213.127 328.031 212.258C328.17 211.388 328.022 210.498 327.61 209.72L300.68 159.23Z" fill="white"/>
</g>
<path d="M329.52 217.67C330.241 216.572 330.614 215.283 330.59 213.97V205.38C330.572 204.59 330.42 203.809 330.14 203.07C321.3 207.48 306.75 215 289.64 224.83C270 236.09 253.38 246.91 245 252.46C245.495 253.071 246.094 253.589 246.77 253.99L254.07 258.21C255.451 259.009 257.063 259.312 258.64 259.07C278.16 256 317.75 235.08 329.52 217.67Z" fill="#263238"/>
<path d="M198.73 191.33L236.37 262C236.785 262.779 236.934 263.672 236.796 264.543C236.658 265.414 236.24 266.217 235.605 266.83C234.969 267.442 234.152 267.831 233.276 267.938C232.4 268.044 231.514 267.862 230.75 267.42L198.46 248.77C190.436 244.139 183.784 237.463 179.181 229.422C174.579 221.382 172.19 212.264 172.26 203L172.43 176.61C172.434 176.143 172.56 175.686 172.795 175.283C173.03 174.88 173.366 174.545 173.77 174.311C174.174 174.078 174.632 173.954 175.099 173.952C175.565 173.95 176.024 174.07 176.43 174.3L189.7 182C193.524 184.204 196.653 187.436 198.73 191.33Z" fill="#37474F"/>
<path d="M205.96 253.08L209.47 255.11V211.5L205.96 204.89V253.08Z" fill="#263238"/>
<path d="M287.26 253.15C291.733 250.837 296.14 248.36 300.48 245.72C300.555 245.669 300.641 245.636 300.732 245.624C300.822 245.612 300.913 245.62 300.999 245.649C301.086 245.678 301.164 245.727 301.228 245.791C301.293 245.856 301.341 245.934 301.37 246.02L302.49 249.02C302.561 249.218 302.561 249.434 302.492 249.632C302.423 249.83 302.288 249.999 302.11 250.11C298.705 252.147 295.186 253.986 291.57 255.62C291.437 255.664 291.293 255.664 291.16 255.62L287.23 254.62C286.62 254.47 286.64 253.47 287.26 253.15Z" fill="#455A64"/>
<path d="M316.86 236.35L315 240.93C314.943 241.082 314.846 241.217 314.72 241.32C311.538 243.875 308.22 246.255 304.78 248.45C304.705 248.503 304.618 248.538 304.526 248.551C304.435 248.564 304.342 248.556 304.255 248.527C304.167 248.498 304.088 248.448 304.023 248.383C303.958 248.317 303.909 248.238 303.88 248.15L302.75 245.15C302.685 244.956 302.687 244.746 302.754 244.552C302.82 244.359 302.949 244.193 303.12 244.08C307.447 241.373 311.707 238.5 315.9 235.46C316.53 235 317.15 235.64 316.86 236.35Z" fill="#455A64"/>
<path d="M359 267.07L358.71 266.92V269.8C334.96 298.18 301.85 315.46 262.52 325.34V335.11C301.85 325.23 334.96 307.95 358.71 279.57V280.64L363.08 276.55V274.13C363.08 272.699 362.703 271.292 361.987 270.053C361.27 268.814 360.24 267.785 359 267.07Z" fill="#455A64"/>
<path d="M252.45 319.51L248.9 321.2V331.34L262.53 335.11V325.34L252.45 319.51Z" fill="#37474F"/>
<path d="M362.21 270.46C338.11 298.62 305.29 317.55 266.94 327.94C261.06 330.08 248.94 321.2 248.94 321.2V331.34C248.94 331.34 261.25 340.26 266.94 338.07C304.85 327.88 337.7 308.87 361.42 281.52C362.499 280.261 363.091 278.658 363.09 277V274.14C363.091 272.861 362.789 271.6 362.21 270.46Z" fill="#37474F"/>
<path d="M262.53 328C256.45 326.71 248.9 321.2 248.9 321.2V331.34C248.9 331.34 256.5 336.84 262.53 338.14V328Z" fill="#263238"/>
<path d="M273.82 297.05C270.62 297.39 267.82 298.44 268.22 301.39C268.536 304.498 269.623 307.478 271.38 310.06C271.764 310.723 272.325 311.267 273 311.63C273.513 311.827 274.062 311.912 274.61 311.88C277.918 311.677 281.167 310.917 284.22 309.63C285.365 309.212 286.413 308.565 287.3 307.73C288.54 306.15 287.25 301.46 286.42 299.07C285.66 296.9 284.27 296.97 281.52 296.79C278.951 296.693 276.377 296.78 273.82 297.05Z" fill="#5FDCC6"/>
<path opacity="0.7" d="M273.82 297.05C270.62 297.39 267.82 298.44 268.22 301.39C268.536 304.498 269.623 307.478 271.38 310.06C271.764 310.723 272.325 311.267 273 311.63C273.513 311.827 274.062 311.912 274.61 311.88C277.918 311.677 281.167 310.917 284.22 309.63C285.365 309.212 286.413 308.565 287.3 307.73C288.54 306.15 287.25 301.46 286.42 299.07C285.66 296.9 284.27 296.97 281.52 296.79C278.951 296.693 276.377 296.78 273.82 297.05Z" fill="white"/>
<path d="M273.52 298.65C272.963 298.761 272.443 299.011 272.007 299.376C271.572 299.741 271.236 300.21 271.03 300.74C270.864 301.294 270.806 301.874 270.86 302.45C270.817 304.279 271.407 306.066 272.53 307.51C273.73 308.85 275.94 309.42 277.4 308.35C277.914 307.95 278.328 307.437 278.61 306.85C279.301 305.569 279.527 304.089 279.25 302.66C278.68 300.08 276.18 298 273.52 298.65Z" fill="white"/>
<path d="M281 306.74C281.35 308.39 283.92 307.54 285 306.82C285.202 306.703 285.379 306.546 285.52 306.36C285.623 306.199 285.691 306.019 285.72 305.83C285.98 304.54 285.04 302.83 283.57 303.01C282.27 303.14 281.06 304.89 280.98 306.14C280.957 306.34 280.963 306.542 281 306.74Z" fill="white"/>
<path d="M346.11 260.13C345.168 261.134 344.605 262.436 344.52 263.81C344.446 266.483 344.584 269.158 344.93 271.81C345.37 274.62 348.85 272.81 350.56 271.59C351.902 270.761 353.087 269.701 354.06 268.46C355.72 265.72 355.6 260.18 355.54 256.07C355.605 255.245 355.432 254.419 355.04 253.69C353.75 251.75 350.43 255.42 349.32 256.49C348.144 257.605 347.069 258.823 346.11 260.13Z" fill="#5FDCC6"/>
<path opacity="0.7" d="M346.11 260.13C345.168 261.134 344.605 262.436 344.52 263.81C344.446 266.483 344.584 269.158 344.93 271.81C345.37 274.62 348.85 272.81 350.56 271.59C351.902 270.761 353.087 269.701 354.06 268.46C355.72 265.72 355.6 260.18 355.54 256.07C355.605 255.245 355.432 254.419 355.04 253.69C353.75 251.75 350.43 255.42 349.32 256.49C348.144 257.605 347.069 258.823 346.11 260.13Z" fill="white"/>
<path d="M350.86 268.7C350.691 269.218 350.37 269.675 349.94 270.01C349.355 270.446 348.703 270.783 348.01 271.01C345.54 271.88 346.15 266.71 348.43 266.25C348.725 266.196 349.027 266.204 349.318 266.275C349.609 266.345 349.882 266.476 350.118 266.659C350.355 266.843 350.551 267.073 350.692 267.337C350.834 267.601 350.918 267.891 350.94 268.19C350.936 268.363 350.909 268.534 350.86 268.7Z" fill="white"/>
<path d="M349.77 259.17C349.008 260.138 348.649 261.364 348.77 262.59C348.903 263.047 349.116 263.477 349.4 263.86C352.74 268.46 354.8 261.09 354.04 258.3C353.35 255.73 351.11 257.14 349.77 259.17Z" fill="white"/>
<path d="M205.92 242.38L212.92 238.31C213.155 238.14 213.43 238.036 213.718 238.007C214.007 237.979 214.297 238.029 214.56 238.15C214.97 238.4 215.8 238.9 216.21 239.15C216.45 239.314 216.641 239.541 216.762 239.805C216.884 240.069 216.931 240.361 216.9 240.65V257.47C216.856 258.271 216.624 259.051 216.223 259.746C215.822 260.441 215.262 261.031 214.59 261.47L207.59 265.54C207.356 265.707 207.083 265.81 206.797 265.838C206.511 265.866 206.222 265.819 205.96 265.7L204.29 264.7C204.055 264.534 203.868 264.309 203.748 264.047C203.629 263.785 203.581 263.496 203.61 263.21V246.37C203.652 245.57 203.884 244.791 204.285 244.097C204.687 243.404 205.247 242.815 205.92 242.38Z" fill="#FAFAFA"/>
<path d="M203.61 246.37V263.19C203.58 263.476 203.627 263.766 203.747 264.028C203.866 264.29 204.054 264.515 204.29 264.68C204.7 264.91 205.29 265.3 205.91 265.68C205.693 265.508 205.523 265.284 205.415 265.029C205.306 264.774 205.264 264.496 205.29 264.22V247.36C205.314 246.558 205.544 245.776 205.96 245.09L204.29 244.09C203.87 244.778 203.636 245.564 203.61 246.37Z" fill="#E0E0E0"/>
<path d="M214.59 261.44L207.59 265.51C206.31 266.24 205.28 265.64 205.28 264.18V247.36C205.321 246.558 205.552 245.777 205.953 245.082C206.355 244.386 206.916 243.796 207.59 243.36L214.59 239.29C215.87 238.56 216.9 239.15 216.9 240.62V257.44C216.856 258.241 216.624 259.021 216.223 259.716C215.822 260.411 215.262 261.001 214.59 261.44Z" fill="#F5F5F5"/>
<path d="M220.85 264.23C221.535 264.679 222.105 265.284 222.514 265.994C222.922 266.705 223.157 267.502 223.2 268.32C223.2 269.83 222.15 270.44 220.84 269.69C220.153 269.239 219.582 268.633 219.172 267.921C218.762 267.209 218.525 266.41 218.48 265.59C218.49 264.08 219.54 263.47 220.85 264.23Z" fill="#37474F"/>
<path d="M212.56 272.15C212.251 272.148 211.947 272.065 211.68 271.91C211.414 271.758 211.194 271.538 211.041 271.273C210.888 271.007 210.809 270.706 210.81 270.4V253.32C210.81 253.166 210.871 253.019 210.98 252.91C211.089 252.801 211.236 252.74 211.39 252.74C211.545 252.74 211.693 252.801 211.804 252.909C211.914 253.018 211.977 253.165 211.98 253.32V270.4C211.978 270.502 212.004 270.602 212.056 270.69C212.107 270.778 212.181 270.851 212.27 270.9C212.358 270.952 212.458 270.979 212.56 270.979C212.662 270.979 212.762 270.952 212.85 270.9L220.55 266.45C220.686 266.374 220.846 266.354 220.995 266.396C221.145 266.437 221.273 266.535 221.35 266.67C221.426 266.803 221.447 266.96 221.408 267.108C221.369 267.256 221.272 267.383 221.14 267.46L213.43 271.91C213.167 272.067 212.866 272.15 212.56 272.15Z" fill="#263238"/>
<path d="M337 311.85L309.32 327.85C308.56 328.29 307.93 327.85 307.93 326.8V318.16C307.941 317.641 308.072 317.131 308.313 316.671C308.554 316.211 308.899 315.814 309.32 315.51L337 299.51C337.76 299.06 338.38 299.51 338.38 300.51V309.15C338.38 309.677 338.255 310.197 338.015 310.666C337.775 311.136 337.427 311.541 337 311.85Z" fill="#F5F5F5"/>
<path d="M308.8 328.5C308.585 328.498 308.375 328.439 308.19 328.33C307.942 328.159 307.744 327.926 307.616 327.654C307.487 327.381 307.434 327.08 307.46 326.78V318.15C307.469 317.542 307.622 316.944 307.907 316.407C308.192 315.869 308.601 315.408 309.1 315.06L336.78 299.06C336.985 298.922 337.224 298.843 337.47 298.831C337.717 298.818 337.962 298.873 338.18 298.99C338.43 299.159 338.63 299.392 338.76 299.665C338.89 299.937 338.946 300.239 338.92 300.54V309.18C338.912 309.787 338.759 310.383 338.474 310.919C338.188 311.454 337.779 311.914 337.28 312.26L309.6 328.26C309.36 328.411 309.084 328.494 308.8 328.5ZM337.58 299.85C337.473 299.855 337.369 299.89 337.28 299.95L309.6 315.95C309.251 316.207 308.967 316.541 308.769 316.926C308.571 317.311 308.466 317.737 308.46 318.17V326.8C308.46 327.21 308.59 327.43 308.69 327.49C308.79 327.55 309.02 327.49 309.1 327.42L336.78 311.42C337.126 311.16 337.408 310.825 337.605 310.441C337.803 310.056 337.91 309.632 337.92 309.2V300.56C337.92 300.15 337.79 299.94 337.69 299.88C337.657 299.861 337.619 299.851 337.58 299.85Z" fill="#E0E0E0"/>
<path d="M276.92 274.86C276.98 274.827 277.047 274.809 277.115 274.809C277.183 274.809 277.251 274.827 277.31 274.86C277.421 274.904 277.52 274.972 277.6 275.06L283.6 282.06C283.652 282.11 283.696 282.167 283.73 282.23C283.76 282.311 283.76 282.399 283.73 282.48C283.725 282.519 283.711 282.555 283.688 282.587C283.666 282.618 283.635 282.643 283.6 282.66L282.23 283.45C282.181 283.49 282.122 283.518 282.059 283.53C281.996 283.542 281.931 283.539 281.87 283.52C281.79 283.487 281.718 283.435 281.66 283.37L280.87 282.43L277.99 284.1L278.17 285.38C278.189 285.476 278.189 285.574 278.17 285.67C278.125 285.797 278.032 285.901 277.91 285.96L276.54 286.75C276.508 286.767 276.472 286.777 276.435 286.777C276.399 286.777 276.362 286.767 276.33 286.75C276.259 286.719 276.201 286.662 276.17 286.59C276.16 286.514 276.16 286.436 276.17 286.36L274.85 276.59C274.831 276.461 274.831 276.329 274.85 276.2C274.867 276.128 274.901 276.061 274.947 276.004C274.994 275.947 275.053 275.901 275.12 275.87L276.92 274.86ZM277.71 281.71L279.47 280.71L277.19 278L277.71 281.71Z" fill="#5FDCC6"/>
<path d="M286.93 277.83C286.846 277.791 286.765 277.745 286.69 277.69L284.69 276.08L286.62 280.5C286.65 280.598 286.65 280.702 286.62 280.8C286.61 280.847 286.591 280.892 286.563 280.931C286.536 280.971 286.501 281.004 286.46 281.03L285.03 281.85C284.992 281.87 284.949 281.881 284.905 281.881C284.862 281.881 284.819 281.87 284.78 281.85C284.735 281.832 284.694 281.805 284.66 281.77C284.625 281.736 284.598 281.695 284.58 281.65L280.85 273C280.815 272.9 280.815 272.79 280.85 272.69C280.86 272.644 280.88 272.601 280.907 272.563C280.935 272.525 280.97 272.494 281.01 272.47L282.27 271.74C282.33 271.707 282.397 271.689 282.465 271.689C282.533 271.689 282.601 271.707 282.66 271.74L282.89 271.87L286.27 274.55L286.41 269.84C286.418 269.742 286.434 269.645 286.46 269.55C286.477 269.478 286.509 269.411 286.554 269.352C286.598 269.293 286.655 269.245 286.72 269.21L287.98 268.48C288.021 268.46 288.065 268.45 288.11 268.45C288.155 268.45 288.2 268.46 288.24 268.48C288.328 268.524 288.395 268.599 288.43 268.69L292.21 277.3C292.24 277.401 292.24 277.509 292.21 277.61C292.186 277.701 292.129 277.779 292.05 277.83L290.62 278.65C290.582 278.672 290.539 278.683 290.495 278.683C290.451 278.683 290.408 278.672 290.37 278.65C290.278 278.609 290.206 278.534 290.17 278.44L288.25 274L288.19 276.79C288.182 276.891 288.165 276.991 288.14 277.09C288.125 277.146 288.099 277.198 288.063 277.242C288.027 277.287 287.981 277.324 287.93 277.35L287.24 277.76C287.198 277.795 287.147 277.82 287.094 277.832C287.04 277.844 286.984 277.844 286.93 277.83Z" fill="#5FDCC6"/>
<path d="M294.16 276.61C294.122 276.63 294.079 276.641 294.035 276.641C293.992 276.641 293.949 276.63 293.91 276.61C293.821 276.571 293.749 276.499 293.71 276.41L289.93 267.79C289.895 267.69 289.895 267.58 289.93 267.48C289.94 267.434 289.96 267.391 289.987 267.353C290.015 267.315 290.05 267.284 290.09 267.26L293.58 265.26C293.985 265.005 294.444 264.848 294.92 264.8C295.292 264.769 295.664 264.838 296 265C296.319 265.148 296.599 265.367 296.82 265.64C297.047 265.922 297.239 266.231 297.39 266.56C297.494 266.789 297.568 267.031 297.61 267.28C297.645 267.475 297.662 267.672 297.66 267.87C297.663 268.022 297.642 268.174 297.6 268.32C297.6 268.44 297.54 268.54 297.52 268.61C297.897 268.661 298.248 268.833 298.52 269.1C298.799 269.392 299.026 269.731 299.19 270.1C299.35 270.467 299.461 270.854 299.52 271.25C299.595 271.636 299.595 272.034 299.52 272.42C299.437 272.817 299.27 273.192 299.03 273.52C298.747 273.901 298.385 274.218 297.97 274.45L294.16 276.61ZM295.37 267.75C295.295 267.551 295.149 267.387 294.96 267.29C294.862 267.258 294.758 267.248 294.656 267.262C294.554 267.276 294.456 267.313 294.37 267.37L292.69 268.37L293.36 269.9L295.04 268.9C295.138 268.852 295.224 268.783 295.294 268.699C295.363 268.614 295.413 268.516 295.44 268.41C295.498 268.189 295.473 267.954 295.37 267.75ZM294.97 273.55L296.76 272.55C296.864 272.497 296.955 272.422 297.027 272.33C297.1 272.239 297.152 272.133 297.18 272.02C297.243 271.79 297.222 271.545 297.12 271.33C297.082 271.224 297.023 271.128 296.945 271.047C296.868 270.966 296.774 270.902 296.67 270.86C296.569 270.82 296.459 270.806 296.351 270.818C296.243 270.831 296.14 270.869 296.05 270.93L294.26 271.93L294.97 273.55Z" fill="#5FDCC6"/>
<path d="M303.74 259.37C303.779 259.35 303.822 259.339 303.865 259.339C303.909 259.339 303.952 259.35 303.99 259.37C304.08 259.409 304.151 259.481 304.19 259.57L306.53 264.9C306.778 265.458 306.936 266.052 307 266.66C307.05 267.192 306.996 267.729 306.84 268.24C306.692 268.732 306.443 269.188 306.11 269.58C305.763 269.98 305.351 270.318 304.89 270.58C304.444 270.853 303.948 271.034 303.43 271.11C302.974 271.182 302.507 271.141 302.07 270.99C301.615 270.823 301.206 270.549 300.88 270.19C300.46 269.758 300.121 269.253 299.88 268.7L297.55 263.38C297.52 263.279 297.52 263.171 297.55 263.07C297.56 263.023 297.581 262.979 297.61 262.941C297.639 262.902 297.677 262.871 297.72 262.85L299.14 262.02C299.179 262 299.222 261.989 299.265 261.989C299.309 261.989 299.352 262 299.39 262.02C299.482 262.061 299.554 262.136 299.59 262.23L301.9 267.5C302.059 267.946 302.366 268.324 302.77 268.57C302.958 268.656 303.165 268.692 303.37 268.673C303.575 268.653 303.772 268.58 303.94 268.46C304.135 268.361 304.305 268.22 304.438 268.047C304.571 267.874 304.664 267.673 304.71 267.46C304.783 266.968 304.703 266.465 304.48 266.02L302.17 260.75C302.135 260.653 302.135 260.547 302.17 260.45C302.193 260.356 302.25 260.274 302.33 260.22L303.74 259.37Z" fill="#5FDCC6"/>
<path d="M314 262.5C314.039 262.48 314.082 262.469 314.125 262.469C314.169 262.469 314.212 262.48 314.25 262.5C314.34 262.539 314.411 262.611 314.45 262.7L315.07 264.12C315.105 264.217 315.105 264.323 315.07 264.42C315.062 264.468 315.043 264.513 315.016 264.553C314.988 264.593 314.952 264.626 314.91 264.65L309.91 267.55C309.87 267.572 309.826 267.583 309.78 267.583C309.735 267.583 309.69 267.572 309.65 267.55C309.605 267.532 309.564 267.505 309.53 267.47C309.495 267.436 309.468 267.395 309.45 267.35L305.68 258.73C305.646 258.633 305.646 258.527 305.68 258.43C305.69 258.383 305.709 258.338 305.737 258.299C305.764 258.259 305.799 258.226 305.84 258.2L307.26 257.38C307.3 257.358 307.345 257.347 307.39 257.347C307.436 257.347 307.48 257.358 307.52 257.38C307.565 257.398 307.606 257.425 307.641 257.459C307.675 257.494 307.702 257.535 307.72 257.58L310.72 264.43L314 262.5Z" fill="#5FDCC6"/>
<path d="M316.05 252.27C316.11 252.237 316.177 252.219 316.245 252.219C316.313 252.219 316.381 252.237 316.44 252.27C316.548 252.323 316.646 252.394 316.73 252.48L322.73 259.48C322.782 259.53 322.826 259.587 322.86 259.65C322.886 259.731 322.886 259.819 322.86 259.9C322.852 259.937 322.836 259.972 322.814 260.003C322.791 260.034 322.763 260.06 322.73 260.08L321.36 260.87C321.311 260.91 321.252 260.938 321.189 260.95C321.126 260.962 321.061 260.959 321 260.94C320.917 260.907 320.844 260.851 320.79 260.78L320 259.85L317.11 261.52L317.29 262.8C317.315 262.895 317.315 262.995 317.29 263.09C317.245 263.217 317.152 263.321 317.03 263.38L315.66 264.17C315.628 264.187 315.592 264.197 315.555 264.197C315.519 264.197 315.482 264.187 315.45 264.17C315.379 264.139 315.321 264.082 315.29 264.01C315.28 263.934 315.28 263.856 315.29 263.78L314 254C313.981 253.871 313.981 253.739 314 253.61C314.018 253.537 314.051 253.469 314.098 253.41C314.145 253.352 314.203 253.304 314.27 253.27L316.05 252.27ZM316.84 259.12L318.6 258.12L316.32 255.43L316.84 259.12Z" fill="#5FDCC6"/>
<path d="M328.86 256.57C328.81 256.606 328.753 256.629 328.692 256.64C328.631 256.65 328.569 256.647 328.51 256.63C328.427 256.608 328.349 256.57 328.28 256.52L323.79 253.4L325.79 257.91C325.825 258.007 325.825 258.113 325.79 258.21C325.782 258.258 325.763 258.303 325.736 258.343C325.708 258.383 325.672 258.416 325.63 258.44L324.21 259.26C324.172 259.28 324.129 259.291 324.085 259.291C324.042 259.291 323.999 259.28 323.96 259.26C323.915 259.242 323.874 259.215 323.84 259.18C323.805 259.146 323.778 259.105 323.76 259.06L320 250.45C319.965 250.35 319.965 250.24 320 250.14C320.008 250.094 320.027 250.05 320.055 250.011C320.082 249.973 320.119 249.942 320.16 249.92L321.29 249.26C321.342 249.228 321.4 249.207 321.46 249.198C321.52 249.19 321.582 249.194 321.64 249.21C321.723 249.232 321.801 249.27 321.87 249.32L326.35 252.44L324.35 247.93C324.32 247.832 324.32 247.728 324.35 247.63C324.36 247.583 324.379 247.538 324.407 247.499C324.434 247.459 324.469 247.426 324.51 247.4L325.93 246.58C325.971 246.56 326.015 246.55 326.06 246.55C326.105 246.55 326.15 246.56 326.19 246.58C326.277 246.622 326.348 246.693 326.39 246.78L330.16 255.4C330.2 255.5 330.2 255.61 330.16 255.71C330.15 255.756 330.131 255.799 330.103 255.837C330.076 255.875 330.041 255.906 330 255.93L328.86 256.57Z" fill="#5FDCC6"/>
<path d="M331 248.07C331.05 248.2 331.11 248.36 331.2 248.56C331.29 248.76 331.37 248.98 331.47 249.2C331.57 249.42 331.66 249.63 331.76 249.84C331.86 250.05 331.93 250.21 331.99 250.32C332.089 250.508 332.206 250.685 332.34 250.85C332.465 251 332.622 251.12 332.8 251.2C332.973 251.287 333.168 251.322 333.36 251.3C333.599 251.282 333.83 251.202 334.03 251.07C334.245 250.96 334.436 250.806 334.59 250.62C334.707 250.471 334.802 250.306 334.87 250.13C334.928 249.98 334.958 249.821 334.96 249.66C334.96 249.5 334.96 249.36 334.96 249.24C334.936 249.118 334.936 248.992 334.96 248.87C334.96 248.78 335.04 248.71 335.17 248.64L336.59 247.82C336.622 247.802 336.659 247.793 336.695 247.793C336.732 247.793 336.768 247.802 336.8 247.82C336.87 247.858 336.926 247.918 336.96 247.99C337.151 248.446 337.25 248.936 337.25 249.43C337.249 249.925 337.161 250.416 336.99 250.88C336.808 251.359 336.548 251.805 336.22 252.2C335.881 252.604 335.471 252.943 335.01 253.2C334.546 253.479 334.028 253.656 333.49 253.72C333.019 253.769 332.543 253.707 332.1 253.54C331.653 253.378 331.249 253.114 330.92 252.77C330.561 252.409 330.267 251.99 330.05 251.53C329.87 251.18 329.69 250.79 329.51 250.37C329.33 249.95 329.16 249.55 329.01 249.16C328.804 248.668 328.686 248.143 328.66 247.61C328.618 247.091 328.672 246.569 328.82 246.07C328.964 245.57 329.201 245.101 329.52 244.69C329.87 244.243 330.305 243.869 330.8 243.59C331.245 243.333 331.733 243.16 332.24 243.08C332.702 243.018 333.171 243.049 333.62 243.17C334.051 243.287 334.451 243.499 334.79 243.79C335.148 244.1 335.432 244.486 335.62 244.92C335.638 244.959 335.647 245.002 335.647 245.045C335.647 245.088 335.638 245.131 335.62 245.17C335.613 245.207 335.597 245.243 335.575 245.274C335.552 245.305 335.523 245.331 335.49 245.35L334.07 246.17C334.03 246.201 333.982 246.223 333.932 246.233C333.882 246.244 333.83 246.242 333.78 246.23C333.684 246.168 333.6 246.09 333.53 246C333.446 245.902 333.355 245.808 333.26 245.72C333.147 245.625 333.013 245.557 332.87 245.52C332.706 245.483 332.535 245.483 332.37 245.52C332.136 245.559 331.912 245.644 331.71 245.77C331.492 245.889 331.301 246.053 331.15 246.25C331.023 246.423 330.935 246.62 330.89 246.83C330.85 247.038 330.85 247.252 330.89 247.46C330.913 247.666 330.95 247.869 331 248.07Z" fill="#5FDCC6"/>
<path d="M343.93 245.2C343.969 245.181 344.012 245.171 344.055 245.171C344.099 245.171 344.141 245.181 344.18 245.2C344.272 245.241 344.344 245.316 344.38 245.41L345 246.82C345.035 246.92 345.035 247.03 345 247.13C344.99 247.176 344.971 247.219 344.943 247.257C344.916 247.295 344.881 247.326 344.84 247.35L339.69 250.35C339.651 250.369 339.609 250.379 339.565 250.379C339.522 250.379 339.479 250.369 339.44 250.35C339.348 250.309 339.276 250.234 339.24 250.14L335.46 241.52C335.425 241.423 335.425 241.317 335.46 241.22C335.47 241.173 335.489 241.128 335.516 241.088C335.544 241.049 335.579 241.015 335.62 240.99L340.68 238.07C340.719 238.05 340.762 238.039 340.805 238.039C340.849 238.039 340.892 238.05 340.93 238.07C341.02 238.109 341.091 238.181 341.13 238.27L341.75 239.69C341.785 239.787 341.785 239.893 341.75 239.99C341.742 240.038 341.723 240.083 341.696 240.123C341.668 240.163 341.632 240.196 341.59 240.22L338.25 242.15L338.88 243.59L341.99 241.8C342.029 241.78 342.072 241.769 342.115 241.769C342.159 241.769 342.202 241.78 342.24 241.8C342.33 241.843 342.401 241.918 342.44 242.01L343.06 243.42C343.095 243.52 343.095 243.63 343.06 243.73C343.05 243.776 343.031 243.819 343.003 243.857C342.976 243.894 342.941 243.926 342.9 243.95L339.8 245.74L340.45 247.24L343.93 245.2Z" fill="#5FDCC6"/>
<path d="M246.86 79.2299L114.19 2.76994C111.15 1.01458 107.701 0.0904541 104.19 0.0904541C100.679 0.0904541 97.2305 1.01458 94.1901 2.76994L18.0001 46.7299C14.9671 48.481 12.4471 50.9978 10.6922 54.0286C8.93729 57.0593 8.00897 60.4978 8.00012 63.9999L5.87012 175.5C5.87196 179.009 6.79696 182.456 8.55223 185.494C10.3075 188.532 12.8313 191.055 15.8701 192.81L150.67 270.51V134.73L246.86 79.2299Z" fill="#FAFAFA"/>
<path d="M165.35 58C171 61.16 176.67 64.3 182.4 67.32C176.91 63.88 171.4 60.54 165.8 57.22C160.2 53.9 154.63 50.67 149.05 47.39C143.47 44.11 137.82 40.95 132.16 37.8L123.67 33.08C120.82 31.55 117.98 29.9799 115.11 28.4799C117.85 30.2099 120.62 31.88 123.38 33.58L131.71 38.58C137.27 41.9 142.88 45.14 148.46 48.41C154.04 51.68 159.69 54.84 165.35 58ZM67.05 56.2299C69.79 57.9599 72.56 59.63 75.32 61.33L83.65 66.33C89.21 69.65 94.81 72.88 100.4 76.16C105.99 79.44 111.63 82.6 117.29 85.75C122.95 88.9 128.61 92.05 134.34 95.07C128.85 91.62 123.34 88.29 117.74 84.97C112.14 81.65 106.57 78.42 100.99 75.14C95.4101 71.86 89.75 68.6999 84.1 65.5399L75.61 60.83C72.76 59.29 69.92 57.72 67.05 56.22V56.2299ZM134.05 56.74C139.68 59.93 145.29 63.18 150.94 66.33C156.59 69.48 162.26 72.6199 167.94 75.6499C162.45 72.1999 156.94 68.8599 151.34 65.5399C145.74 62.2199 140.17 58.99 134.59 55.71C129.01 52.43 123.36 49.2799 117.7 46.1199L109.21 41.41C106.36 39.87 103.52 38.31 100.65 36.8C103.39 38.54 106.17 40.21 108.92 41.91L117.25 46.91C122.85 50.22 128.46 53.4499 134 56.7299L134.05 56.74ZM131.72 77.4299C137.37 80.5799 143.03 83.72 148.72 86.75C143.24 83.3 137.72 79.96 132.13 76.64C126.54 73.32 120.96 70.09 115.38 66.81C109.8 63.53 104.14 60.37 98.4901 57.22L90 52.5C87.14 50.96 84.31 49.39 81.44 47.89C84.18 49.63 86.9501 51.29 89.7101 53L98.03 58C103.59 61.32 109.2 64.55 114.79 67.83C120.38 71.11 126.05 74.27 131.71 77.42L131.72 77.4299Z" fill="#E0E0E0"/>
<path d="M24.32 197.69L44.11 188.5C44.11 188.5 42.56 169.89 29.5 174.33C16.44 178.77 24.32 197.69 24.32 197.69Z" fill="#37474F"/>
<path d="M35.2002 195.32L30.9402 186.86L41.0802 181C44.3002 179.15 48.5902 179.36 53.3002 182.08C63.3002 187.86 71.4202 202.76 71.4202 215.37C71.4202 221.97 69.2002 226.62 65.6402 228.74L65.5002 228.83L55.1102 234.83L50.6002 225.9C42.1002 219.39 35.5302 206.56 35.2002 195.32Z" fill="#263238"/>
<path d="M24.6401 200.52C24.6401 211.39 30.6401 223.97 38.7501 230.92C39.9927 231.991 41.3317 232.945 42.7501 233.77C52.7501 239.56 60.8801 234.02 60.8701 221.41C60.8701 211.89 56.2401 201.05 49.6601 193.83L49.6001 193.77C47.6189 191.55 45.3086 189.648 42.7501 188.13C32.7501 182.38 24.6401 187.91 24.6401 200.52Z" fill="#37474F"/>
<path d="M42.7602 195.76C36.3902 192.09 31.2302 195.92 31.2302 204.32C31.2302 212.72 36.3902 222.52 42.7602 226.2C49.1302 229.88 54.2902 226.04 54.2902 217.64C54.2902 209.24 49.1302 199.44 42.7602 195.76Z" fill="#455A64"/>
<path d="M42.76 203.08C39.45 201.18 36.76 203.16 36.76 207.53C36.76 211.9 39.44 216.97 42.76 218.88C46.08 220.79 48.76 218.8 48.76 214.44C48.76 210.08 46.06 205 42.76 203.08Z" fill="#E0E0E0"/>
<path d="M40.85 203C40.4411 202.752 39.9957 202.569 39.53 202.46C37.88 202.91 36.77 204.72 36.77 207.52C36.884 210.805 38.0633 213.964 40.13 216.52C40.3605 216.697 40.6009 216.86 40.85 217.01C43.79 218.7 46.17 216.94 46.17 213.01C46.17 209.08 43.79 204.7 40.85 203Z" fill="#F5F5F5"/>
<path d="M24.6401 200.52C24.6401 211.39 30.6401 223.97 38.7501 230.92C33.1459 224.571 29.1988 216.934 27.2601 208.69C25.7301 201.42 26.2601 190.99 32.5401 188.35C38.8201 185.71 47.0001 191.27 49.6101 193.8C47.6289 191.58 45.3186 189.678 42.7601 188.16C32.7501 182.38 24.6401 187.91 24.6401 200.52Z" fill="#455A64"/>
<path d="M8.00012 64.35C8.00012 64.35 5.87012 128.05 5.87012 175.58C5.87383 179.078 6.80035 182.513 8.55614 185.538C10.3119 188.563 12.8348 191.072 15.8701 192.81L24.3301 197.69V195.84C24.3301 183.98 31.4301 178.19 40.9601 181.07C41.4601 181.22 41.9601 181.4 42.5001 181.6C43.709 182.079 44.8791 182.651 46.0001 183.31C58.0801 190.25 67.8101 207.1 67.8101 220.98C67.8067 221.542 67.743 222.102 67.6201 222.65L150.62 270.54V134.73L18.3101 58.42C17.2681 57.8101 16.0833 57.4865 14.876 57.4819C13.6686 57.4774 12.4814 57.792 11.4348 58.394C10.3882 58.996 9.51928 59.8639 8.9161 60.9099C8.31293 61.9558 7.99693 63.1426 8.00012 64.35Z" fill="#E0E0E0"/>
<path d="M119.84 141.65L155.84 162.45C157.101 163.271 158.151 164.378 158.903 165.682C159.655 166.985 160.09 168.447 160.17 169.95V201.7C160.17 204.46 158.24 205.58 155.84 204.2L119.84 183.45C118.58 182.628 117.531 181.52 116.779 180.217C116.027 178.914 115.592 177.452 115.51 175.95V144.15C115.51 141.39 117.44 140.27 119.84 141.65Z" fill="#37474F"/>
<path d="M1.6701 174.93L5.91011 172.48V175.27L13.7501 179.8V191.41L11.5901 192.65L1.6701 186.92C1.19745 186.645 0.804881 186.251 0.531261 185.777C0.257642 185.304 0.112466 184.767 0.110107 184.22V177.63C0.110458 177.083 0.254787 176.545 0.528606 176.071C0.802426 175.597 1.1961 175.204 1.6701 174.93Z" fill="#263238"/>
<path d="M11.5901 192.65L13.7501 191.4V179.8H13.7401L11.5901 181.04V192.65Z" fill="#37474F"/>
<path d="M5.91017 175.27V172.48L2.54017 174.43C2.43022 174.494 2.33903 174.586 2.27567 174.697C2.2123 174.807 2.17896 174.933 2.17896 175.06C2.17896 175.187 2.2123 175.313 2.27567 175.423C2.33903 175.534 2.43022 175.626 2.54017 175.69L11.5902 181L13.7502 179.76L5.91017 175.27Z" fill="#455A64"/>
<path d="M248.31 305L233.8 296.65C227.97 288.54 218.42 279.19 207.63 281.59C174.44 262.48 93.0202 215.59 59.3902 196.24C53.5702 188 44.0802 178.53 33.1302 180.74C32.7802 181.2 30.3502 179.43 30.0302 179.34C29.2002 178.83 7.49019 166.41 5.94019 165.52C5.94019 159.11 6.04019 152.52 6.13019 145.91C57.5002 175.47 184 248.24 238.65 279.74C241.441 281.348 243.725 283.708 245.24 286.55L252.78 300.7C253.097 301.319 253.205 302.024 253.09 302.71C252.975 303.396 252.642 304.027 252.141 304.509C251.64 304.991 250.997 305.299 250.307 305.388C249.617 305.476 248.917 305.34 248.31 305Z" fill="#5FDCC6"/>
<path opacity="0.2" d="M248.31 305L233.8 296.65C227.97 288.54 218.42 279.19 207.63 281.59C174.44 262.48 93.0202 215.59 59.3902 196.24C53.5202 187.94 43.7702 178.19 32.7002 180.87L30.0002 179.36C29.1702 178.85 7.46016 166.43 5.91016 165.54C5.91016 159.13 6.01015 152.54 6.10015 145.93C57.5002 175.47 184 248.24 238.65 279.74C241.441 281.348 243.724 283.708 245.24 286.55L252.78 300.7C253.097 301.319 253.205 302.024 253.09 302.71C252.975 303.396 252.642 304.027 252.141 304.509C251.64 304.991 250.997 305.299 250.307 305.388C249.617 305.476 248.917 305.34 248.31 305Z" fill="black"/>
<path opacity="0.2" d="M166.29 279.54L169.21 281.23V146.08C168.21 145.37 167.27 144.68 166.29 144.01V279.54Z" fill="black"/>
<path d="M22.9402 179.61V181.89C22.9402 182.36 22.6102 182.54 22.2002 182.31L18.2002 179.99C17.9884 179.849 17.8122 179.661 17.6855 179.441C17.5588 179.221 17.4851 178.974 17.4702 178.72V176.44C17.4702 175.97 17.8002 175.78 18.2002 176.02L22.2002 178.34C22.4139 178.479 22.592 178.667 22.7205 178.887C22.8489 179.108 22.9242 179.355 22.9402 179.61Z" fill="white"/>
<path d="M166.29 154.67V157.92L150.69 148.92L8 66.6499C8 65.1499 8.07 64.35 8.07 64.35C8.06939 64.0589 8.08944 63.7682 8.13 63.4799L150.72 145.68L166.29 154.67Z" fill="#5FDCC6"/>
<path opacity="0.2" d="M166.29 154.67V157.92L150.69 148.92L8 66.6499C8 65.1499 8.07 64.35 8.07 64.35C8.06939 64.0589 8.08944 63.7682 8.13 63.4799L150.72 145.68L166.29 154.67Z" fill="black"/>
<path d="M79.9201 135.41L73.3301 121.46L65.5401 125.24V112L56.2201 106.61V119.86L48.4301 107.08L41.8301 113.43L52.8101 131.42L41.8301 136.75L48.4301 150.7L56.2201 146.92V160.17L65.5401 165.55V152.3L73.3301 165.08L79.9201 158.74L68.9501 140.74L79.9201 135.41Z" fill="#5FDCC6"/>
<path opacity="0.2" d="M79.9201 135.41L73.3301 121.46L65.5401 125.24V112L56.2201 106.61V119.86L48.4301 107.08L41.8301 113.43L52.8101 131.42L41.8301 136.75L48.4301 150.7L56.2201 146.92V160.17L65.5401 165.55V152.3L73.3301 165.08L79.9201 158.74L68.9501 140.74L79.9201 135.41Z" fill="black"/>
<path d="M174.8 257.82L177.58 259.43C178.2 259.79 178.71 259.43 178.71 258.57V250.37C178.703 249.947 178.597 249.531 178.401 249.156C178.205 248.781 177.924 248.457 177.58 248.21L174.8 246.61C174.18 246.25 173.67 246.61 173.67 247.46V255.67C173.677 256.092 173.784 256.506 173.98 256.879C174.176 257.253 174.457 257.575 174.8 257.82Z" fill="#263238"/>
<path d="M157.26 247.78L160.04 249.39C160.66 249.75 161.17 249.39 161.17 248.53V240.33C161.163 239.907 161.057 239.491 160.861 239.116C160.664 238.741 160.384 238.417 160.04 238.17L157.26 236.57C156.64 236.21 156.13 236.57 156.13 237.42V245.63C156.137 246.052 156.243 246.466 156.44 246.839C156.636 247.213 156.917 247.535 157.26 247.78Z" fill="#263238"/>
<path d="M167.75 127L250.22 79.38L233.73 69.86L151.25 117.48L167.75 127Z" fill="#5FDCC6"/>
<path opacity="0.6" d="M167.75 127L250.22 79.38L233.73 69.86L151.25 117.48L167.75 127Z" fill="white"/>
<path d="M250.22 79.3799L255.12 88.4099L167.75 138.85V127L250.22 79.3799Z" fill="#5FDCC6"/>
<path opacity="0.4" d="M250.22 79.3799L255.12 88.4099L167.75 138.85V127L250.22 79.3799Z" fill="white"/>
<path d="M151.25 117.48L146.43 126.53L167.75 138.85V127L151.25 117.48Z" fill="#5FDCC6"/>
<path opacity="0.25" d="M151.25 117.48L146.43 126.53L167.75 138.85V127L151.25 117.48Z" fill="white"/>
<path d="M200.74 107.95L184.24 98.4299L200.74 88.9099L217.23 98.4299L200.74 107.95Z" fill="#FAFAFA"/>
<path d="M200.74 107.95L204.47 117.65L221.6 107.76L217.23 98.4299L200.74 107.95Z" fill="#EBEBEB"/>
</svg>
