<svg width="82" height="60" viewBox="0 0 82 60" fill="none" xmlns="http://www.w3.org/2000/svg">
<path d="M40.9987 0H34.1655V11.3885H40.9987V0Z" fill="white"/>
<path d="M47.8318 6.83316H0V50.1095H47.8318V6.83316Z" fill="#5FDCC6"/>
<path d="M72.8868 25.0548L63.4202 6.83316H40.999V50.1095H81.9977V39.8598V29.6102C81.9977 29.6102 82.0777 29.0496 81.3571 28.6492C80.6364 28.2489 72.8868 25.0548 72.8868 25.0548Z" fill="#5FDCC6"/>
<path d="M67.7441 25.0548L61.3182 13.6662H47.832V25.0548H67.7441Z" fill="black"/>
<path d="M81.9973 43.2763H0V50.1095H81.9973V43.2763Z" fill="#1B6B84"/>
<path d="M81.9977 43.2763H40.999V50.1095H81.9977V43.2763Z" fill="#1B6B84"/>
<path d="M61.498 59.2203C66.5298 59.2203 70.6089 55.1412 70.6089 50.1095C70.6089 45.0777 66.5298 40.9986 61.498 40.9986C56.4663 40.9986 52.3872 45.0777 52.3872 50.1095C52.3872 55.1412 56.4663 59.2203 61.498 59.2203Z" fill="white"/>
<path d="M18.2217 59.2203C23.2534 59.2203 27.3325 55.1412 27.3325 50.1095C27.3325 45.0777 23.2534 40.9986 18.2217 40.9986C13.1899 40.9986 9.11084 45.0777 9.11084 50.1095C9.11084 55.1412 13.1899 59.2203 18.2217 59.2203Z" fill="white"/>
<path d="M18.2218 54.6648C20.7377 54.6648 22.7772 52.6253 22.7772 50.1095C22.7772 47.5936 20.7377 45.5541 18.2218 45.5541C15.706 45.5541 13.6665 47.5936 13.6665 50.1095C13.6665 52.6253 15.706 54.6648 18.2218 54.6648Z" fill="black"/>
<path d="M61.4982 54.6648C64.014 54.6648 66.0535 52.6253 66.0535 50.1095C66.0535 47.5936 64.014 45.5541 61.4982 45.5541C58.9824 45.5541 56.9429 47.5936 56.9429 50.1095C56.9429 52.6253 58.9824 54.6648 61.4982 54.6648Z" fill="black"/>
<path d="M27.3856 19.1203H21.9084V13.595H14.6055V19.1203H9.12842V26.4872H14.6055V32.0124H21.9084V26.4872H27.3856V19.1203Z" fill="#D80027"/>
</svg>
