<svg width="95" height="54" viewBox="0 0 95 54" fill="none" xmlns="http://www.w3.org/2000/svg">
<path d="M78.5992 42.5733C80.3347 42.5733 81.7467 43.9872 81.7467 45.7227C81.7467 47.4602 80.3347 48.8722 78.5992 48.8722C76.8617 48.8722 75.4497 47.4602 75.4497 45.7227C75.4497 43.9872 76.8617 42.5733 78.5992 42.5733Z" fill="black"/>
<path d="M15.7393 42.5733C17.4748 42.5733 18.8888 43.9872 18.8888 45.7227C18.8888 47.4602 17.4748 48.8722 15.7393 48.8722C14.0018 48.8722 12.5898 47.4602 12.5898 45.7227C12.5898 43.9872 14.0018 42.5733 15.7393 42.5733Z" fill="black"/>
<path d="M9.26414 41.5986C10.6271 39.463 13.0176 38.0452 15.7396 38.0452C19.9794 38.0452 23.4171 41.4829 23.4171 45.7227C23.4171 45.8914 23.4112 46.0581 23.4014 46.2228C23.1426 50.2293 19.8107 53.4003 15.7396 53.4003C11.6684 53.4003 8.33656 50.2293 8.0777 46.2228C8.06789 46.0581 8.06201 45.8914 8.06201 45.7227C8.06201 44.2049 8.50325 42.789 9.26414 41.5986ZM18.889 45.7227C18.889 43.9872 17.4751 42.5733 15.7396 42.5733C14.0021 42.5733 12.5901 43.9872 12.5901 45.7227C12.5901 47.4602 14.0021 48.8722 15.7396 48.8722C17.4751 48.8722 18.889 47.4602 18.889 45.7227Z" fill="white"/>
<path d="M85.0748 41.5986C85.8338 42.789 86.275 44.2049 86.275 45.7227C86.275 45.8894 86.2691 46.0561 86.2593 46.2209C86.0024 50.2293 82.6725 53.4003 78.5994 53.4003C74.5263 53.4003 71.1945 50.2293 70.9376 46.2209C70.9278 46.0561 70.9219 45.8894 70.9219 45.7227C70.9219 41.4829 74.3596 38.0452 78.5994 38.0452C81.3214 38.0452 83.7119 39.463 85.0748 41.5986ZM81.7469 45.7227C81.7469 43.9872 80.335 42.5733 78.5994 42.5733C76.8619 42.5733 75.45 43.9872 75.45 45.7227C75.45 47.4602 76.8619 48.8722 78.5994 48.8722C80.335 48.8722 81.7469 47.4602 81.7469 45.7227Z" fill="white"/>
<path d="M6.29696 45.7227C6.29696 45.8836 6.30089 46.0463 6.30873 46.2228H2.31209C1.03544 46.2228 0 45.1874 0 43.9107C0 43.2734 0.25886 42.6949 0.676566 42.2752C1.09623 41.8575 1.67475 41.5986 2.31209 41.5986H7.24612C6.6225 42.8772 6.29696 44.2833 6.29696 45.7227Z" fill="#1B6B84"/>
<path d="M94.5546 43.9088V43.9107C94.5546 45.1854 93.5211 46.2209 92.2445 46.2209H88.0262C88.036 46.0463 88.04 45.8836 88.04 45.7227C88.04 44.2853 87.7164 42.8792 87.0947 41.5986H92.2445C93.5211 41.5986 94.5546 42.6341 94.5546 43.9088Z" fill="#1B6B84"/>
<path d="M88.9045 26.6965L82.6409 25.1669L76.0949 9.00779H58.1963V46.2209H69.1704C69.1606 46.0444 69.1566 45.8836 69.1566 45.7227C69.1566 40.5161 73.3925 36.2802 78.5992 36.2802C81.8388 36.2802 84.8157 37.9138 86.563 40.6495C86.7591 40.9574 86.9376 41.2731 87.0945 41.5986H92.2442V30.952C92.2442 28.9322 90.8656 27.175 88.9045 26.6965ZM62.5381 25.5454V13.3515H73.169L78.1089 25.5454H62.5381Z" fill="#5FDCC6"/>
<path d="M2.16895 0.220276V41.5986H7.24613C7.40301 41.2731 7.58147 40.9554 7.77758 40.6475C9.52292 37.9138 12.4998 36.2802 15.7395 36.2802C20.9461 36.2802 25.182 40.5161 25.182 45.7227C25.182 45.8855 25.1781 46.0502 25.1683 46.2228H58.1964V0.220276H2.16895ZM40.3802 19.8113H34.2793V25.9102H26.0841V19.8113H19.9852V11.616H26.0841V5.51514H34.2793V11.616H40.3802V19.8113Z" fill="#5FDCC6"/>
<path d="M69.8591 1.53517L70.5508 9.00779H64.2754L64.9653 1.53536C65.0033 1.12354 65.3487 0.808594 65.7623 0.808594H69.0621C69.4755 0.808594 69.8211 1.12354 69.8591 1.53517Z" fill="white"/>
<path d="M73.169 13.3515L78.1089 25.5454H62.5381V13.3515H73.169Z" fill="black"/>
<path d="M40.3804 11.616V19.8113H34.2795V25.9102H26.0842V19.8113H19.9854V11.616H26.0842V5.51514H34.2795V11.616H40.3804Z" fill="#D80027"/>
<path d="M60.0187 9.00779H58.1963V46.2209H60.0187V9.00779Z" fill="#1B6B84"/>
<path d="M92.2443 32.0934H2.16895V35.3605H92.2443V32.0934Z" fill="#1B6B84"/>
<path d="M60.0181 32.0934H58.1963V35.3605H60.0181V32.0934Z" fill="#1B6B84"/>
<path d="M62.5576 13.2633L74.8521 25.4572H78.1284L73.1885 13.2633H62.5576Z" fill="#455A64"/>
<path d="M89.1735 37.2765H87.7714C86.9211 37.2765 86.2319 36.5872 86.2319 35.737V32.1581C86.2319 31.3078 86.9212 30.6187 87.7714 30.6187H89.1735V37.2765Z" fill="white"/>
</svg>
