<svg width="73" height="52" viewBox="0 0 73 52" fill="none" xmlns="http://www.w3.org/2000/svg">
<path d="M35.0982 15.4286C35.0982 16.0491 35.3647 16.963 37.6692 17.731C38.6479 18.0573 41.6264 19.0501 41.6264 21.9568C41.6264 23.9663 40.2333 25.6557 38.3624 26.1122V26.5465C38.3624 27.1064 37.9085 27.5601 37.3487 27.5601C36.789 27.5601 36.3351 27.1064 36.3351 26.5465V26.1122C34.4641 25.6557 33.071 23.9663 33.071 21.9568C33.071 21.3968 33.5248 20.9431 34.0846 20.9431C34.6444 20.9431 35.0982 21.3968 35.0982 21.9568C35.0982 23.1978 36.1078 24.2073 37.3487 24.2073C38.5897 24.2073 39.5991 23.1977 39.5991 21.9568C39.5991 21.242 39.2937 20.4094 37.0282 19.6543C34.4023 18.779 33.071 17.3573 33.071 15.4286C33.071 13.4192 34.4641 11.7298 36.3351 11.2733V10.839C36.3351 10.2791 36.789 9.82542 37.3487 9.82542C37.9085 9.82542 38.3624 10.2791 38.3624 10.839V11.2733C40.2333 11.7298 41.6264 13.4192 41.6264 15.4286C41.6264 15.9885 41.1725 16.4422 40.6128 16.4422C40.053 16.4422 39.5991 15.9885 39.5991 15.4286C39.5991 14.1877 38.5896 13.1782 37.3487 13.1782C36.1079 13.1782 35.0982 14.1877 35.0982 15.4286ZM72.6663 1.01363V36.3717C72.6663 36.9317 72.2125 37.3854 71.6527 37.3854H70.6351V43.1837C70.6351 43.47 70.5141 43.743 70.302 43.9352C70.1147 44.1046 69.8718 44.1973 69.6217 44.1973C69.5883 44.1973 69.5549 44.1957 69.5214 44.1923L66.5729 43.8996V50.2787C66.5729 50.5851 66.4344 50.8748 66.1961 51.0673C66.0142 51.2142 65.7889 51.2923 65.5593 51.2923C65.4882 51.2923 65.4166 51.2848 65.3458 51.2696L0.811442 37.3651C0.809685 37.3647 0.808063 37.3644 0.806306 37.364L0.800224 37.3627C0.784952 37.3594 0.770356 37.3548 0.755354 37.3509C0.743866 37.3479 0.732108 37.3454 0.720756 37.342C0.706835 37.3378 0.69332 37.3327 0.679535 37.3279C0.674534 37.3262 0.669399 37.3244 0.664398 37.3225C0.654262 37.3189 0.64399 37.3158 0.633989 37.3117C0.631557 37.3108 0.629259 37.3097 0.626826 37.3087C0.614528 37.3036 0.602499 37.2977 0.590471 37.2921C0.577767 37.2863 0.564928 37.281 0.552494 37.2747C0.549385 37.2731 0.546412 37.2712 0.543304 37.2694L0.541952 37.2687C0.530464 37.2627 0.519382 37.2562 0.508165 37.2497C0.496947 37.2432 0.485594 37.2372 0.474782 37.2304C0.469647 37.2271 0.464781 37.2235 0.459646 37.2201C0.44978 37.2137 0.440184 37.2068 0.430588 37.2002C0.420993 37.1935 0.411127 37.1868 0.401801 37.1797C0.395314 37.1748 0.389097 37.1695 0.382745 37.1644C0.374231 37.1576 0.365851 37.1508 0.357607 37.1437C0.349633 37.1368 0.341524 37.1301 0.333686 37.123C0.326117 37.1163 0.318954 37.109 0.311656 37.102C0.304358 37.0949 0.29706 37.0882 0.290032 37.081C0.28368 37.0744 0.277463 37.0678 0.271246 37.0611C0.263002 37.0522 0.255028 37.0429 0.247054 37.0336C0.240838 37.0264 0.23435 37.0197 0.228404 37.0124C0.223538 37.0064 0.219078 37.0002 0.214348 36.9941C0.206239 36.9837 0.198536 36.973 0.190832 36.9624C0.185561 36.9549 0.17975 36.948 0.174614 36.9405C0.17056 36.9344 0.167046 36.928 0.162991 36.9218C0.155693 36.9106 0.1488 36.8992 0.141908 36.8876C0.137042 36.8794 0.131771 36.8713 0.127176 36.8628C0.122987 36.855 0.119067 36.8473 0.115013 36.8396C0.109742 36.8296 0.104741 36.8195 0.099876 36.8092C0.0952809 36.7998 0.0908209 36.7902 0.0864961 36.7806C0.0824416 36.7715 0.0785222 36.7623 0.074738 36.7531C0.0712241 36.7446 0.0679805 36.7361 0.0647369 36.7275C0.0605473 36.7162 0.0567631 36.705 0.0529789 36.6937C0.049465 36.6834 0.0459511 36.6733 0.0428426 36.6627C0.0408153 36.656 0.0389232 36.6492 0.0370311 36.6425C0.0332469 36.6291 0.0302736 36.6154 0.0271652 36.6018C0.0245973 36.5908 0.021624 36.58 0.0194616 36.5689C0.0185156 36.5642 0.0177047 36.5593 0.0167586 36.5546C0.0136502 36.5374 0.0114878 36.5199 0.00932536 36.5023C0.00797386 36.492 0.00608176 36.482 0.00500056 36.4716C0.00473026 36.4691 0.00459511 36.4666 0.00432481 36.4642C0.0016218 36.4338 0 36.403 0 36.3717V1.01363C0 0.453699 0.453834 0 1.01363 0H71.6527C72.2125 0 72.6663 0.453699 72.6663 1.01363ZM61.1342 35.3581C61.6143 30.3385 65.6195 26.3333 70.6391 25.8533V11.532C65.6195 11.0519 61.6143 7.04673 61.1342 2.02712H11.5321C11.052 7.04686 7.04686 11.052 2.02725 11.532V25.8533C7.04686 26.3333 11.052 30.3385 11.5321 35.3581H61.1342ZM9.49227 35.3581C9.02871 31.4577 5.92769 28.3567 2.02725 27.8931V35.3581H9.49227ZM9.49227 2.02725H2.02725V9.49227C5.92769 9.02857 9.02871 5.92769 9.49227 2.02725ZM70.6391 2.02725H63.174C63.6376 5.92769 66.7386 9.02871 70.6391 9.49227V2.02725ZM64.5456 43.6984L18.7065 39.1469L64.5457 49.0234L64.5456 43.6984ZM68.6079 37.3854H21.4812L68.6079 42.0645V37.3854ZM70.6391 35.3581V27.8931C66.7386 28.3567 63.6376 31.4577 63.174 35.3581H69.6189L69.6215 35.358L69.6241 35.3581H70.6391ZM46.924 10.7348C46.466 11.0569 46.3558 11.6891 46.6778 12.147C48.0294 14.0698 48.7439 16.3332 48.7439 18.6926C48.7439 24.9759 43.632 30.0878 37.3487 30.0878C31.0653 30.0878 25.9534 24.9759 25.9534 18.6926C25.9534 12.4094 31.0653 7.29743 37.3487 7.29743C39.7083 7.29743 41.972 8.01197 43.8947 9.36388C44.3528 9.68621 44.985 9.57593 45.3069 9.11777C45.6289 8.65988 45.5187 8.02765 45.0608 7.70559C42.7948 6.11244 40.128 5.27018 37.3487 5.27018C29.9475 5.27018 23.9262 11.2915 23.9262 18.6926C23.9262 26.0937 29.9475 32.1151 37.3487 32.1151C44.75 32.1151 50.7712 26.0937 50.7712 18.6926C50.7712 15.9135 49.9292 13.247 48.336 10.9811C48.0144 10.5232 47.382 10.4132 46.924 10.7348Z" fill="#5FDCC6"/>
</svg>
