<svg width="31" height="31" viewBox="0 0 31 31" fill="none" xmlns="http://www.w3.org/2000/svg">
<path d="M20.9 3.35C20.9 2.99196 20.7578 2.64858 20.5046 2.39541C20.2514 2.14223 19.908 2 19.55 2H11.45C11.092 2 10.7486 2.14223 10.4954 2.39541C10.2422 2.64858 10.1 2.99196 10.1 3.35V10.1H3.35C2.99196 10.1 2.64858 10.2422 2.39541 10.4954C2.14223 10.7486 2 11.092 2 11.45V19.55C2 19.908 2.14223 20.2514 2.39541 20.5046C2.64858 20.7578 2.99196 20.9 3.35 20.9H10.1V27.65C10.1 28.008 10.2422 28.3514 10.4954 28.6046C10.7486 28.8578 11.092 29 11.45 29H19.55C19.908 29 20.2514 28.8578 20.5046 28.6046C20.7578 28.3514 20.9 28.008 20.9 27.65V20.9H27.65C28.008 20.9 28.3514 20.7578 28.6046 20.5046C28.8578 20.2514 29 19.908 29 19.55V11.45C29 11.092 28.8578 10.7486 28.6046 10.4954C28.3514 10.2422 28.008 10.1 27.65 10.1H20.9V3.35Z" stroke="white" stroke-width="2.7" stroke-linecap="round" stroke-linejoin="round"/>
</svg>
