<svg width="34" height="35" viewBox="0 0 34 35" fill="none" xmlns="http://www.w3.org/2000/svg">
<path d="M6.30518 18.857V33H26.734V18.857L16.5196 8.64261L6.30518 18.857Z" stroke="white" stroke-width="3.14289" stroke-linejoin="round"/>
<path d="M0.479743 15.3888C0.329654 15.5338 0.209938 15.7072 0.12758 15.8989C0.0452226 16.0906 0.00187249 16.2968 5.93326e-05 16.5055C-0.00175383 16.7141 0.0380064 16.9211 0.11702 17.1142C0.196034 17.3073 0.312718 17.4828 0.460265 17.6303C0.607812 17.7779 0.783267 17.8946 0.976392 17.9736C1.16952 18.0526 1.37644 18.0923 1.5851 18.0905C1.79375 18.0887 1.99996 18.0454 2.19168 17.963C2.3834 17.8806 2.55681 17.7609 2.70177 17.6108L0.479743 15.3888ZM16.5195 1.57111L17.6305 0.460098C17.3358 0.165497 16.9362 0 16.5195 0C16.1028 0 15.7032 0.165497 15.4085 0.460098L16.5195 1.57111ZM30.3372 17.6108C30.4822 17.7609 30.6556 17.8806 30.8473 17.963C31.039 18.0454 31.2452 18.0887 31.4539 18.0905C31.6625 18.0923 31.8694 18.0526 32.0626 17.9736C32.2557 17.8946 32.4311 17.7779 32.5787 17.6303C32.7262 17.4828 32.8429 17.3073 32.9219 17.1142C33.0009 16.9211 33.0407 16.7141 33.0389 16.5055C33.0371 16.2968 32.9937 16.0906 32.9114 15.8989C32.829 15.7072 32.7093 15.5338 32.5592 15.3888L30.3372 17.6108ZM2.70177 17.6108L17.6305 2.68212L15.4085 0.460098L0.479743 15.3888L2.70177 17.6108ZM15.4085 2.68212L30.3372 17.6108L32.5592 15.3888L17.6305 0.460098L15.4085 2.68212Z" fill="white"/>
<path d="M12.5908 22.7856H20.448M16.5194 18.857V26.7142" stroke="white" stroke-width="3.14289" stroke-linecap="round" stroke-linejoin="round"/>
</svg>
