<svg width="27" height="27" viewBox="0 0 27 27" fill="none" xmlns="http://www.w3.org/2000/svg">
<path d="M13.5 18.9C16.4823 18.9 18.9 16.4823 18.9 13.5C18.9 10.5177 16.4823 8.09999 13.5 8.09999C10.5176 8.09999 8.09998 10.5177 8.09998 13.5C8.09998 16.4823 10.5176 18.9 13.5 18.9Z" fill="#5FDCC6"/>
<path d="M14.85 2.79315V0H12.15V2.79315C9.7744 3.09647 7.56671 4.17983 5.87327 5.87327C4.17983 7.56671 3.09647 9.7744 2.79315 12.15H0V14.85H2.79315C3.09603 17.2258 4.17924 19.4337 5.87277 21.1272C7.56629 22.8208 9.77423 23.904 12.15 24.2069V27H14.85V24.2069C17.2259 23.9042 19.4339 22.821 21.1275 21.1275C22.821 19.4339 23.9042 17.2259 24.2069 14.85H27V12.15H24.2069C23.904 9.77423 22.8208 7.56629 21.1272 5.87277C19.4337 4.17924 17.2258 3.09603 14.85 2.79315ZM13.5 21.6C9.03285 21.6 5.4 17.9671 5.4 13.5C5.4 9.03285 9.03285 5.4 13.5 5.4C17.9671 5.4 21.6 9.03285 21.6 13.5C21.6 17.9671 17.9671 21.6 13.5 21.6Z" fill="#5FDCC6"/>
</svg>
