<svg width="29" height="35" viewBox="0 0 29 35" fill="none" xmlns="http://www.w3.org/2000/svg">
<path d="M14.2668 18.8667C16.8073 18.8667 18.8668 16.8072 18.8668 14.2667C18.8668 11.7262 16.8073 9.66669 14.2668 9.66669C11.7262 9.66669 9.66675 11.7262 9.66675 14.2667C9.66675 16.8072 11.7262 18.8667 14.2668 18.8667Z" stroke="white" stroke-width="3.93333" stroke-linecap="round" stroke-linejoin="round"/>
<path d="M14.2667 2C11.0134 2 7.89328 3.29238 5.59283 5.59283C3.29238 7.89328 2 11.0134 2 14.2667C2 17.1678 2.6164 19.066 4.3 21.1667L14.2667 32.6667L24.2334 21.1667C25.917 19.066 26.5334 17.1678 26.5334 14.2667C26.5334 11.0134 25.241 7.89328 22.9405 5.59283C20.6401 3.29238 17.52 2 14.2667 2V2Z" stroke="white" stroke-width="3.93333" stroke-linecap="round" stroke-linejoin="round"/>
</svg>
