<svg width="66" height="67" viewBox="0 0 66 67" fill="none" xmlns="http://www.w3.org/2000/svg">
<path d="M20.0348 45.8082C14.308 51.5155 4.60896 51.4928 1.90029 43.8863C1.36997 42.3971 0.945958 40.8658 0.6341 39.3034C-0.639211 32.9237 0.0142984 26.3113 2.51199 20.3018C5.00968 14.2925 9.23937 9.15622 14.6662 5.54251C20.0931 1.92881 26.4733 -2.78628e-07 33.0001 0C39.5268 2.78628e-07 45.9071 1.92881 51.3338 5.54251C56.7607 9.15622 60.9903 14.2925 63.4881 20.302C65.9858 26.3113 66.6392 32.9237 65.3659 39.3034C65.0541 40.8658 64.6301 42.3971 64.0996 43.8863C61.391 51.4928 51.692 51.5155 45.9652 45.8082L37.125 36.9983C36.2804 36.1566 36.3677 34.7684 36.6007 33.6011C36.7422 32.8914 36.6695 32.1558 36.3917 31.4872C36.1138 30.8187 35.6433 30.2472 35.0396 29.8453C34.4359 29.4434 33.7261 29.2287 33.0001 29.2287C32.274 29.2287 31.5642 29.4434 30.9605 29.8453C30.3566 30.2472 29.8862 30.8187 29.6083 31.4872C29.3304 32.1558 29.2577 32.8914 29.3995 33.6011C29.6325 34.7684 29.7195 36.1566 28.8749 36.9983L20.0348 45.8082Z" fill="url(#paint0_linear_4_6255)"/>
<path d="M19.58 60.255L18.089 56.356C17.9817 56.09 17.8743 55.754 17.767 55.348C17.7157 55.5487 17.662 55.7353 17.606 55.908C17.5547 56.0807 17.5033 56.2347 17.452 56.37L15.968 60.255H19.58ZM22.527 64H21.379C21.2483 64 21.141 63.9673 21.057 63.902C20.973 63.8367 20.9123 63.7527 20.875 63.65L19.986 61.319H15.555L14.666 63.65C14.6333 63.7387 14.5727 63.8203 14.484 63.895C14.3953 63.965 14.288 64 14.162 64H13.014L17.018 53.948H18.523L22.527 64ZM34.352 53.948V64H33.05V56.846C33.05 56.7387 33.0523 56.6243 33.057 56.503C33.0663 56.3817 33.0756 56.258 33.085 56.132L29.739 62.271C29.6223 62.4997 29.4426 62.614 29.2 62.614H28.99C28.7473 62.614 28.57 62.4997 28.458 62.271L25.049 56.111C25.077 56.3723 25.091 56.6173 25.091 56.846V64H23.782V53.948H24.888C25.0186 53.948 25.119 53.962 25.189 53.99C25.2636 54.0133 25.3336 54.0833 25.399 54.2L28.759 60.22C28.8243 60.3413 28.885 60.4697 28.941 60.605C28.997 60.7403 29.0506 60.8757 29.102 61.011C29.2 60.7357 29.3143 60.4697 29.445 60.213L32.742 54.2C32.8026 54.0833 32.868 54.0133 32.938 53.99C33.0126 53.962 33.1153 53.948 33.246 53.948H34.352ZM40.4296 62.817C40.8076 62.817 41.1296 62.7727 41.3956 62.684C41.6663 62.5953 41.8856 62.474 42.0536 62.32C42.2263 62.166 42.3523 61.984 42.4316 61.774C42.5109 61.5593 42.5506 61.326 42.5506 61.074C42.5506 60.5747 42.3779 60.1827 42.0326 59.898C41.6873 59.6087 41.1529 59.464 40.4296 59.464H38.3296V62.817H40.4296ZM38.3296 55.117V58.407H40.0446C40.7773 58.407 41.3209 58.26 41.6756 57.966C42.0349 57.6673 42.2146 57.266 42.2146 56.762C42.2146 56.188 42.0443 55.7703 41.7036 55.509C41.3629 55.2477 40.8333 55.117 40.1146 55.117H38.3296ZM40.1146 53.948C40.7446 53.948 41.2836 54.0087 41.7316 54.13C42.1843 54.2513 42.5553 54.4263 42.8446 54.655C43.1339 54.8837 43.3463 55.1613 43.4816 55.488C43.6216 55.81 43.6916 56.1763 43.6916 56.587C43.6916 56.8297 43.6543 57.063 43.5796 57.287C43.5049 57.511 43.3906 57.721 43.2366 57.917C43.0826 58.1083 42.8889 58.281 42.6556 58.435C42.4223 58.589 42.1469 58.7173 41.8296 58.82C43.2903 59.1093 44.0206 59.8723 44.0206 61.109C44.0206 61.5383 43.9413 61.9303 43.7826 62.285C43.6239 62.635 43.3929 62.9383 43.0896 63.195C42.7863 63.4517 42.4129 63.65 41.9696 63.79C41.5263 63.93 41.0223 64 40.4576 64H36.8386V53.948H40.1146ZM48.7794 58.792C49.1621 58.792 49.4981 58.7453 49.7874 58.652C50.0814 58.5587 50.3264 58.428 50.5224 58.26C50.7184 58.0873 50.8654 57.8843 50.9634 57.651C51.0614 57.413 51.1104 57.1517 51.1104 56.867C51.1104 56.2883 50.9191 55.852 50.5364 55.558C50.1584 55.264 49.5891 55.117 48.8284 55.117H47.4214V58.792H48.7794ZM53.4694 64H52.1394C51.8734 64 51.6797 63.895 51.5584 63.685L49.0734 60.199C48.9941 60.0823 48.9077 60.0007 48.8144 59.954C48.7211 59.9027 48.5811 59.877 48.3944 59.877H47.4214V64H45.9304V53.948H48.8284C49.4771 53.948 50.0347 54.0157 50.5014 54.151C50.9727 54.2817 51.3601 54.4707 51.6634 54.718C51.9714 54.9607 52.1977 55.2547 52.3424 55.6C52.4917 55.9453 52.5664 56.3327 52.5664 56.762C52.5664 57.112 52.5127 57.441 52.4054 57.749C52.2981 58.057 52.1394 58.3347 51.9294 58.582C51.7241 58.8247 51.4721 59.0347 51.1734 59.212C50.8747 59.3893 50.5364 59.5247 50.1584 59.618C50.3451 59.73 50.5061 59.8863 50.6414 60.087L53.4694 64Z" fill="#1B6B84"/>
<defs>
<linearGradient id="paint0_linear_4_6255" x1="62.9961" y1="16.4437" x2="4.42118" y2="16.4437" gradientUnits="userSpaceOnUse">
<stop stop-color="#5FDCC6"/>
<stop offset="0.53125" stop-color="#62E6DE"/>
<stop offset="1" stop-color="#1B6B84"/>
</linearGradient>
</defs>
</svg>
