<svg width="41" height="41" viewBox="0 0 41 41" fill="none" xmlns="http://www.w3.org/2000/svg">
<path d="M18.3036 20.5C18.3036 21.0825 18.535 21.6412 18.9469 22.0531C19.3588 22.465 19.9175 22.6964 20.5 22.6964C21.0825 22.6964 21.6412 22.465 22.0531 22.0531C22.465 21.6412 22.6964 21.0825 22.6964 20.5C22.6964 19.9175 22.465 19.3588 22.0531 18.9469C21.6412 18.535 21.0825 18.3036 20.5 18.3036C19.9175 18.3036 19.3588 18.535 18.9469 18.9469C18.535 19.3588 18.3036 19.9175 18.3036 20.5ZM27.4553 20.5C27.4553 21.0825 27.6867 21.6412 28.0986 22.0531C28.5105 22.465 29.0692 22.6964 29.6517 22.6964C30.2342 22.6964 30.7929 22.465 31.2048 22.0531C31.6167 21.6412 31.8481 21.0825 31.8481 20.5C31.8481 19.9175 31.6167 19.3588 31.2048 18.9469C30.7929 18.535 30.2342 18.3036 29.6517 18.3036C29.0692 18.3036 28.5105 18.535 28.0986 18.9469C27.6867 19.3588 27.4553 19.9175 27.4553 20.5ZM9.15193 20.5C9.15193 21.0825 9.38334 21.6412 9.79524 22.0531C10.2071 22.465 10.7658 22.6964 11.3483 22.6964C11.9309 22.6964 12.4895 22.465 12.9014 22.0531C13.3133 21.6412 13.5447 21.0825 13.5447 20.5C13.5447 19.9175 13.3133 19.3588 12.9014 18.9469C12.4895 18.535 11.9309 18.3036 11.3483 18.3036C10.7658 18.3036 10.2071 18.535 9.79524 18.9469C9.38334 19.3588 9.15193 19.9175 9.15193 20.5ZM39.4074 12.5562C38.3732 10.099 36.8906 7.89342 35.0008 5.999C33.1242 4.11554 30.8965 2.61843 28.4437 1.59241C25.9269 0.53538 23.2547 0 20.5 0H20.4085C17.6355 0.0137277 14.9495 0.562835 12.4237 1.64275C9.99186 2.67928 7.78496 4.17906 5.92597 6.05848C4.05445 7.94833 2.58561 10.1448 1.56977 12.5929C0.517329 15.1279 -0.0134679 17.8231 0.0002596 20.5961C0.0157866 23.7739 0.76759 26.9049 2.19666 29.7433V36.6987C2.19666 37.2569 2.41842 37.7923 2.81317 38.1871C3.20791 38.5818 3.7433 38.8036 4.30155 38.8036H11.2614C14.0998 40.2327 17.2307 40.9845 20.4085 41H20.5046C23.2455 41 25.9041 40.4692 28.407 39.4305C30.8475 38.4167 33.0669 36.937 34.9413 35.0742C36.8312 33.2027 38.3183 31.0154 39.357 28.5765C40.4369 26.0506 40.986 23.3645 40.9997 20.5915C41.0135 17.8048 40.4735 15.1004 39.4074 12.5562ZM32.4933 32.5987C29.2856 35.7743 25.0301 37.5223 20.5 37.5223H20.4222C17.663 37.5086 14.9221 36.8222 12.5014 35.5318L12.1171 35.3259H5.6743V28.883L5.46838 28.4987C4.178 26.078 3.49162 23.3371 3.47789 20.5778C3.45959 16.0156 5.20298 11.7326 8.40149 8.50658C11.5954 5.28058 15.8647 3.49598 20.4268 3.47768H20.5046C22.7925 3.47768 25.0118 3.92154 27.1029 4.80011C29.1438 5.6558 30.9741 6.88672 32.5482 8.46083C34.1177 10.0304 35.3532 11.8653 36.2088 13.9061C37.0966 16.0202 37.5404 18.2624 37.5313 20.5778C37.5038 25.1354 35.7147 29.4047 32.4933 32.5987Z" fill="#5FDCC6"/>
</svg>
