<svg width="42" height="42" viewBox="0 0 42 42" fill="none" xmlns="http://www.w3.org/2000/svg">
<path d="M30.1147 41.3421C30.6636 41.3453 31.2077 41.2391 31.7152 41.0297C32.2226 40.8204 32.6833 40.512 33.0703 40.1227L38.6716 34.5214C39.0565 34.1341 39.2726 33.6103 39.2726 33.0642C39.2726 32.5182 39.0565 31.9943 38.6716 31.6071L30.404 23.3395C30.0168 22.9546 29.4929 22.7385 28.9469 22.7385C28.4008 22.7385 27.877 22.9546 27.4897 23.3395L24.1827 26.6259C21.8931 26.0154 19.7726 24.8915 17.982 23.3395C16.4342 21.5461 15.3108 19.4266 14.6957 17.1388L17.982 13.8318C18.367 13.4446 18.583 12.9207 18.583 12.3747C18.583 11.8286 18.367 11.3048 17.982 10.9175L9.71445 2.64995C9.32719 2.26499 8.80334 2.04891 8.25729 2.04891C7.71125 2.04891 7.18739 2.26499 6.80014 2.64995L1.21953 8.27189C0.830198 8.6589 0.521845 9.11958 0.312472 9.62704C0.103098 10.1345 -0.00310189 10.6786 6.89653e-05 11.2275C0.187583 19.1691 3.36099 26.7484 8.8877 32.4545C14.5938 37.9812 22.1731 41.1546 30.1147 41.3421ZM8.26763 7.05242L13.6209 12.4057L10.9546 15.072C10.7021 15.3085 10.5129 15.6047 10.4046 15.9333C10.2963 16.2619 10.2722 16.6125 10.3345 16.9528C11.1071 20.4053 12.7427 23.6054 15.0884 26.2538C17.7347 28.6025 20.9357 30.2386 24.3894 31.0077C24.7246 31.0778 25.0719 31.0634 25.4002 30.966C25.7285 30.8686 26.0275 30.6912 26.2702 30.4496L28.9365 27.7213L34.2898 33.0746L30.156 37.2083C23.3016 37.0319 16.7615 34.2964 11.8227 29.5402C7.05418 24.5993 4.31079 18.0506 4.13385 11.1862L8.26763 7.05242ZM37.2041 18.6063H41.3379C41.3915 16.1488 40.9469 13.7059 40.0311 11.4247C39.1152 9.14361 37.747 7.07153 36.0088 5.33338C34.2707 3.59523 32.1986 2.22699 29.9175 1.31113C27.6363 0.395261 25.1934 -0.0492678 22.7359 0.00432937V4.13811C24.6537 4.07177 26.5648 4.40063 28.3501 5.10424C30.1355 5.80786 31.7571 6.8712 33.114 8.22816C34.471 9.58511 35.5343 11.2067 36.238 12.9921C36.9416 14.7774 37.2704 16.6885 37.2041 18.6063Z" fill="#5FDCC6"/>
<path d="M22.7358 12.4057C27.0763 12.4057 28.9365 14.2659 28.9365 18.6063H33.0703C33.0703 11.951 29.3912 8.2719 22.7358 8.2719V12.4057Z" fill="#5FDCC6"/>
</svg>
