<svg width="108" height="18" viewBox="0 0 108 18" fill="none" xmlns="http://www.w3.org/2000/svg">
<path d="M8.33674 1.73693C8.51437 1.19022 9.28782 1.19022 9.46546 1.73693L10.7663 5.74047C10.8457 5.98497 11.0736 6.15051 11.3307 6.15051H15.5402C16.1151 6.15051 16.3541 6.8861 15.889 7.22399L12.4834 9.69832C12.2754 9.84942 12.1884 10.1173 12.2678 10.3618L13.5687 14.3653C13.7463 14.912 13.1206 15.3666 12.6555 15.0288L9.2499 12.5544C9.04191 12.4033 8.76029 12.4033 8.5523 12.5544L5.14669 15.0288C4.68163 15.3666 4.05589 14.912 4.23353 14.3653L5.53436 10.3618C5.6138 10.1173 5.52677 9.84942 5.31879 9.69832L1.91317 7.22399C1.44811 6.8861 1.68712 6.15051 2.26197 6.15051H6.47154C6.72862 6.15051 6.95646 5.98497 7.03591 5.74047L8.33674 1.73693Z" fill="#5FDCC6"/>
<path d="M30.8861 1.73693C31.0637 1.19022 31.8371 1.19022 32.0148 1.73693L33.3156 5.74047C33.3951 5.98497 33.6229 6.15051 33.88 6.15051H38.0895C38.6644 6.15051 38.9034 6.8861 38.4383 7.22399L35.0327 9.69832C34.8247 9.84942 34.7377 10.1173 34.8172 10.3618L36.118 14.3653C36.2956 14.912 35.6699 15.3666 35.2048 15.0288L31.7992 12.5544C31.5912 12.4033 31.3096 12.4033 31.1016 12.5544L27.696 15.0288C27.2309 15.3666 26.6052 14.912 26.7828 14.3653L28.0837 10.3618C28.1631 10.1173 28.0761 9.84942 27.8681 9.69832L24.4625 7.22399C23.9974 6.8861 24.2364 6.15051 24.8113 6.15051H29.0209C29.2779 6.15051 29.5058 5.98497 29.5852 5.74047L30.8861 1.73693Z" fill="#5FDCC6"/>
<path d="M53.4354 1.73693C53.613 1.19022 54.3865 1.19022 54.5641 1.73693L55.8649 5.74047C55.9444 5.98497 56.1722 6.15051 56.4293 6.15051H60.6389C61.2137 6.15051 61.4527 6.8861 60.9877 7.22399L57.582 9.69832C57.3741 9.84942 57.287 10.1173 57.3665 10.3618L58.6673 14.3653C58.8449 14.912 58.2192 15.3666 57.7541 15.0288L54.3485 12.5544C54.1405 12.4033 53.8589 12.4033 53.6509 12.5544L50.2453 15.0288C49.7803 15.3666 49.1545 14.912 49.3322 14.3653L50.633 10.3618C50.7124 10.1173 50.6254 9.84942 50.4174 9.69832L47.0118 7.22399C46.5467 6.8861 46.7858 6.15051 47.3606 6.15051H51.5702C51.8273 6.15051 52.0551 5.98497 52.1345 5.74047L53.4354 1.73693Z" fill="#5FDCC6"/>
<path d="M75.9852 1.73693C76.1628 1.19022 76.9363 1.19022 77.1139 1.73693L78.4147 5.74047C78.4942 5.98497 78.722 6.15051 78.9791 6.15051H83.1887C83.7635 6.15051 84.0025 6.8861 83.5375 7.22399L80.1318 9.69832C79.9239 9.84942 79.8368 10.1173 79.9163 10.3618L81.2171 14.3653C81.3947 14.912 80.769 15.3666 80.3039 15.0288L76.8983 12.5544C76.6904 12.4033 76.4087 12.4033 76.2007 12.5544L72.7951 15.0288C72.3301 15.3666 71.7043 14.912 71.882 14.3653L73.1828 10.3618C73.2622 10.1173 73.1752 9.84942 72.9672 9.69832L69.5616 7.22399C69.0965 6.8861 69.3356 6.15051 69.9104 6.15051H74.12C74.3771 6.15051 74.6049 5.98497 74.6843 5.74047L75.9852 1.73693Z" fill="#D9D9D9"/>
<path d="M98.5345 1.73693C98.7121 1.19022 99.4856 1.19022 99.6632 1.73693L100.964 5.74047C101.043 5.98497 101.271 6.15051 101.528 6.15051H105.738C106.313 6.15051 106.552 6.8861 106.087 7.22399L102.681 9.69832C102.473 9.84942 102.386 10.1173 102.466 10.3618L103.766 14.3653C103.944 14.912 103.318 15.3666 102.853 15.0288L99.4476 12.5544C99.2397 12.4033 98.958 12.4033 98.7501 12.5544L95.3444 15.0288C94.8794 15.3666 94.2536 14.912 94.4313 14.3653L95.7321 10.3618C95.8116 10.1173 95.7245 9.84942 95.5165 9.69832L92.1109 7.22399C91.6459 6.8861 91.8849 6.15051 92.4597 6.15051H96.6693C96.9264 6.15051 97.1542 5.98497 97.2337 5.74047L98.5345 1.73693Z" fill="#D9D9D9"/>
</svg>
